<svg xmlns="http://www.w3.org/2000/svg" viewBox="0 0 299.8 163.68">
    <g transform="translate(-54.2 -54.14)">
        <path
            d="m56.9 58.12h.1s.57 1.7 1 2.83l6.15 15.63h2.17l6.15-15.63c.41-1.07 1-2.83 1-2.83h.07v18.46h2.7v-22.44h-3.71l-7.22 18.65h-.06l-7.25-18.65h-3.64v22.44h2.54z" />
        <path
            d="m85.79 67.13c-4.05.63-7.07 1.41-7.07 5.24 0 3.08 2.42 4.52 5.49 4.52a6.52 6.52 0 0 0 5.4-2.57 2.49 2.49 0 0 0 2.54 2.44h.25a3.51 3.51 0 0 0 1.38-.25v-1.87h-.1c-1.36.36-1.68-.41-1.68-1.73v-7.72c0-3.86-2.54-5.19-6-5.19-4.3 0-6.37 2.35-6.47 5.49h2.47c.1-2.45 1.41-3.58 4-3.58 2.32 0 3.64 1 3.64 2.86s-1.56 2.02-3.85 2.36zm3.92.69v2.76a4.58 4.58 0 0 1 -4.71 4.42h-.21c-1.67 0-3.36-.47-3.36-2.64 0-2.39 2-2.83 4.59-3.3a11.68 11.68 0 0 0 3.7-1.23z" />
        <path
            d="m101.66 77.05a5.88 5.88 0 0 0 5-2.45h.07v2h2.54v-22.46h-2.54v8.51h-.07a6 6 0 0 0 -5.07-2.65c-4 0-7.13 3.14-7.13 8.54.01 5.19 2.77 8.51 7.2 8.51zm.06-14.91c3.36 0 5.18 2.64 5.18 6.4s-1.54 6.37-5.15 6.37c-3.11 0-4.68-2.7-4.68-6.37s1.57-6.4 4.65-6.4z" />
        <path
            d="m119.35 77a6.67 6.67 0 0 0 7-5.46h-2.48a4.21 4.21 0 0 1 -4.49 3.33c-3.26 0-5.06-2.51-5.24-5.81h12.56c0-5.37-2.6-9.14-7.47-9.14-4.62 0-7.69 3.83-7.69 8.54s2.85 8.54 7.81 8.54zm-.16-15c2.92 0 4.59 2 4.74 5.21h-9.76c.37-3 2.01-5.21 5.02-5.21z" />
        <path
            d="m139.67 76.58 2.73-9.83c.37-1.35.82-3.39.82-3.39h.07s.41 2 .78 3.39l2.7 9.83h2.61l5.3-16.23h-2.68l-3 10c-.41 1.35-.91 3.48-.91 3.48h-.09s-.44-2.11-.78-3.42l-2.64-10.08h-2.58l-2.73 10.08c-.34 1.29-.82 3.42-.82 3.42h-.06s-.51-2.14-.88-3.48l-2.86-10h-2.73l5.08 16.23z" />
    </g>
    <path d="m101.98 6.21h2.55v16.23h-2.55z" />
    <path d="m101.98 0h2.55v3.14h-2.55z" />
    <path
        d="m165.72 55.24h-2.54v5.12h-2.36v2.07h2.36v11.11c0 2.29 1.5 3.14 3.58 3.14a9.85 9.85 0 0 0 2-.22v-2.2h-.1a4.8 4.8 0 0 1 -1.35.22c-1 0-1.63-.38-1.63-1.51v-10.54h3.14v-2.08h-3.14z"
        transform="translate(-54.2 -54.14)" />
    <path
        d="m178.93 60a6.09 6.09 0 0 0 -5.15 2.51h-.06v-8.37h-2.55v22.44h2.55v-10a4.29 4.29 0 0 1 4.08-4.49h.37c2.29 0 3.67 1.19 3.67 3.3v11.19h2.55v-11.39c0-3.36-2.07-5.19-5.46-5.19z"
        transform="translate(-54.2 -54.14)" />
    <path
        d="m150.89 109.22-44.35 11.56-6.54 11.22-13.32-.1-32.48 31.61 32.46 31.56 13.34-.07 6.58 11.26 44.34 11.56 11.88-43.11-6.8-11.2 6.75-11.17zm-49.84 24.63 33.95-8.48-19.47 32.8h-39zm0 59.31-24.5-24.32h39l19.45 32.8zm43.42 3.15-19.47-32.8 19.48-32.81 9.41 32.81z"
        transform="translate(-54.2 -54.14)" />
    <path
        d="m251.48 141.21c-5.93 0-9.9 2.46-12.87 7.11h-.25v-5.93h-10.36v43.43h10.63v-24.64c0-5.93 3.72-10 8.8-10 4.82 0 8.42 2.86 8.42 8v26.67h10.63v-28.39c-.02-9.46-6.03-16.25-15-16.25z"
        transform="translate(-54.2 -54.14)" />
    <path
        d="m211.83 167.43c0 5.76-3.3 9.82-8.72 9.82-4.91 0-8-2.79-8-7.87v-27h-10.63v29c0 9.48 5.42 15.66 15.07 15.66 6.09 0 9.48-2.29 12.44-6.26h.25v5.08h10.21v-43.49h-10.62z"
        transform="translate(-54.2 -54.14)" />
    <path d="m217.83 88.25h10.63v43.43h-10.63z" />
    <path d="m217.83 74.71h10.63v8.73h-10.63z" />
    <path
        d="m342.71 142.39-6.31 19.55c-1.35 4-2.54 9.48-2.54 9.48h-.27s-1.44-5.5-2.79-9.48l-7.13-19.55h-11.36l11.69 30.9c2.45 6.6 3.3 9.4 3.3 11.77 0 3.56-1.86 5.93-6.43 5.93h-4.06v9h6.77c8.8 0 11.86-3.47 15.16-13.12l15.26-44.48z"
        transform="translate(-54.2 -54.14)" />
    <path
        d="m302.46 173v-23h6.77v-7.62h-6.77v-13.53h-10.56v13.54h-6v7.61h6v25.48c0 8.21 6.18 10.41 11.77 10.41a55.37 55.37 0 0 0 5.81-.17v-8.4h-2.71c-2.54.03-4.31-1.07-4.31-4.32z"
        transform="translate(-54.2 -54.14)" />
</svg>